<svg xmlns="http://www.w3.org/2000/svg" viewBox="0 0 32 32" width="32" height="32">
  <rect width="32" height="32" rx="6" fill="#ffffff"/>
  <path d="M22.5 19.5c-1.2-1.2-2.5-1.2-3.7 0l-.9.9c-.1.1-.3.1-.4 0l-5.9-5.9c-.1-.1-.1-.3 0-.4l.9-.9c1.2-1.2 1.2-2.5 0-3.7l-1.5-1.5c-1.2-1.2-2.5-1.2-3.7 0l-.6.6C5.7 9.7 5.5 11.5 6 13.3c.6 2 2 4.4 4.5 6.9 2.5 2.5 4.9 3.9 6.9 4.5 1.8.5 3.6.3 4.8-.9l.6-.6c1.2-1.2 1.2-2.5 0-3.7l-2.3 0z" fill="none" stroke="#000000" stroke-width="1.5" stroke-linecap="round" stroke-linejoin="round"/>
</svg>
